<svg xmlns="http://www.w3.org/2000/svg" viewBox="0 0 100 125" x="0px" y="0px"><defs><style>.cls-1{fill:none;}</style></defs><title>Asset 443</title><g data-name="Layer 2"><g data-name="Layer 1"><rect class="cls-1" width="100" height="100"/><path d="M50,100A29,29,0,0,1,21.08,71.08V28.92a28.92,28.92,0,0,1,57.84,0V71.08A29,29,0,0,1,50,100ZM50,5.19A23.76,23.76,0,0,0,26.27,28.92V71.08a23.73,23.73,0,0,0,47.46,0V28.92A23.76,23.76,0,0,0,50,5.19Z"/><path d="M50,41.28a2.6,2.6,0,0,1-2.6-2.59V23.36a2.6,2.6,0,0,1,5.2,0V38.69A2.6,2.6,0,0,1,50,41.28Z"/></g></g><text x="0" y="115" fill="#000000" font-size="5px" font-weight="bold" font-family="'Helvetica Neue', Helvetica, Arial-Unicode, Arial, Sans-serif">Created by Prashanth Rapolu</text><text x="0" y="120" fill="#000000" font-size="5px" font-weight="bold" font-family="'Helvetica Neue', Helvetica, Arial-Unicode, Arial, Sans-serif">from the Noun Project</text></svg>